<svg width="132" height="19" viewBox="0 0 132 19" fill="none" xmlns="http://www.w3.org/2000/svg">
<path d="M15.08 1.152V18H10.976V11.064H4.592V18H0.488V1.152H4.592V7.752H10.976V1.152H15.08ZM24.1387 18.192C22.8267 18.192 21.6427 17.912 20.5867 17.352C19.5467 16.792 18.7227 15.992 18.1147 14.952C17.5227 13.912 17.2267 12.696 17.2267 11.304C17.2267 9.928 17.5307 8.72 18.1387 7.68C18.7467 6.624 19.5787 5.816 20.6347 5.256C21.6907 4.696 22.8747 4.416 24.1867 4.416C25.4987 4.416 26.6827 4.696 27.7387 5.256C28.7947 5.816 29.6267 6.624 30.2347 7.68C30.8427 8.72 31.1467 9.928 31.1467 11.304C31.1467 12.68 30.8347 13.896 30.2107 14.952C29.6027 15.992 28.7627 16.792 27.6907 17.352C26.6347 17.912 25.4507 18.192 24.1387 18.192ZM24.1387 14.64C24.9227 14.64 25.5867 14.352 26.1307 13.776C26.6907 13.2 26.9707 12.376 26.9707 11.304C26.9707 10.232 26.6987 9.408 26.1547 8.832C25.6267 8.256 24.9707 7.968 24.1867 7.968C23.3867 7.968 22.7227 8.256 22.1947 8.832C21.6667 9.392 21.4027 10.216 21.4027 11.304C21.4027 12.376 21.6587 13.2 22.1707 13.776C22.6987 14.352 23.3547 14.64 24.1387 14.64ZM38.7719 18.192C37.6039 18.192 36.5639 17.992 35.6519 17.592C34.7399 17.192 34.0199 16.648 33.4919 15.96C32.9639 15.256 32.6679 14.472 32.6039 13.608H36.6599C36.7079 14.072 36.9239 14.448 37.3079 14.736C37.6919 15.024 38.1639 15.168 38.7239 15.168C39.2359 15.168 39.6279 15.072 39.8999 14.88C40.1879 14.672 40.3319 14.408 40.3319 14.088C40.3319 13.704 40.1319 13.424 39.7319 13.248C39.3319 13.056 38.6839 12.848 37.7879 12.624C36.8279 12.4 36.0279 12.168 35.3879 11.928C34.7479 11.672 34.1959 11.28 33.7319 10.752C33.2679 10.208 33.0359 9.48 33.0359 8.568C33.0359 7.8 33.2439 7.104 33.6599 6.48C34.0919 5.84 34.7159 5.336 35.5319 4.968C36.3639 4.6 37.3479 4.416 38.4839 4.416C40.1639 4.416 41.4839 4.832 42.4439 5.664C43.4199 6.496 43.9799 7.6 44.1239 8.976H40.3319C40.2679 8.512 40.0599 8.144 39.7079 7.872C39.3719 7.6 38.9239 7.464 38.3639 7.464C37.8839 7.464 37.5159 7.56 37.2599 7.752C37.0039 7.928 36.8759 8.176 36.8759 8.496C36.8759 8.88 37.0759 9.168 37.4759 9.36C37.8919 9.552 38.5319 9.744 39.3959 9.936C40.3879 10.192 41.1959 10.448 41.8199 10.704C42.4439 10.944 42.9879 11.344 43.4519 11.904C43.9319 12.448 44.1799 13.184 44.1959 14.112C44.1959 14.896 43.9719 15.6 43.5239 16.224C43.0919 16.832 42.4599 17.312 41.6279 17.664C40.8119 18.016 39.8599 18.192 38.7719 18.192ZM54.1708 14.52V18H52.0828C50.5948 18 49.4348 17.64 48.6028 16.92C47.7708 16.184 47.3548 14.992 47.3548 13.344V8.016H45.7228V4.608H47.3548V1.344H51.4588V4.608H54.1468V8.016H51.4588V13.392C51.4588 13.792 51.5548 14.08 51.7468 14.256C51.9388 14.432 52.2588 14.52 52.7068 14.52H54.1708ZM69.0807 11.088C69.0807 11.472 69.0568 11.872 69.0088 12.288H59.7208C59.7848 13.12 60.0488 13.76 60.5128 14.208C60.9928 14.64 61.5768 14.856 62.2648 14.856C63.2888 14.856 64.0008 14.424 64.4008 13.56H68.7688C68.5448 14.44 68.1368 15.232 67.5448 15.936C66.9688 16.64 66.2408 17.192 65.3608 17.592C64.4808 17.992 63.4968 18.192 62.4088 18.192C61.0968 18.192 59.9288 17.912 58.9048 17.352C57.8808 16.792 57.0808 15.992 56.5048 14.952C55.9288 13.912 55.6408 12.696 55.6408 11.304C55.6408 9.912 55.9208 8.696 56.4808 7.656C57.0568 6.616 57.8568 5.816 58.8808 5.256C59.9048 4.696 61.0808 4.416 62.4088 4.416C63.7048 4.416 64.8568 4.688 65.8648 5.232C66.8728 5.776 67.6568 6.552 68.2168 7.56C68.7928 8.568 69.0807 9.744 69.0807 11.088ZM64.8808 10.008C64.8808 9.304 64.6408 8.744 64.1608 8.328C63.6808 7.912 63.0808 7.704 62.3608 7.704C61.6728 7.704 61.0888 7.904 60.6088 8.304C60.1448 8.704 59.8568 9.272 59.7448 10.008H64.8808ZM75.3498 0.24V18H71.2458V0.24H75.3498Z" fill="white"/>
<path d="M98.0019 1.152V18H93.8979V11.064H87.5139V18H83.4099V1.152H87.5139V7.752H93.8979V1.152H98.0019ZM114.189 4.608V18H110.085V16.176C109.669 16.768 109.101 17.248 108.381 17.616C107.677 17.968 106.893 18.144 106.029 18.144C105.005 18.144 104.101 17.92 103.317 17.472C102.533 17.008 101.925 16.344 101.493 15.48C101.061 14.616 100.845 13.6 100.845 12.432V4.608H104.925V11.88C104.925 12.776 105.157 13.472 105.621 13.968C106.085 14.464 106.709 14.712 107.493 14.712C108.293 14.712 108.925 14.464 109.389 13.968C109.853 13.472 110.085 12.776 110.085 11.88V4.608H114.189ZM121.24 6.504C121.624 5.88 122.176 5.376 122.896 4.992C123.616 4.608 124.44 4.416 125.368 4.416C126.472 4.416 127.472 4.696 128.368 5.256C129.264 5.816 129.968 6.616 130.48 7.656C131.008 8.696 131.272 9.904 131.272 11.28C131.272 12.656 131.008 13.872 130.48 14.928C129.968 15.968 129.264 16.776 128.368 17.352C127.472 17.912 126.472 18.192 125.368 18.192C124.424 18.192 123.6 18.008 122.896 17.64C122.192 17.256 121.64 16.752 121.24 16.128V18H117.136V0.24H121.24V6.504ZM127.096 11.28C127.096 10.256 126.808 9.456 126.232 8.88C125.672 8.288 124.976 7.992 124.144 7.992C123.328 7.992 122.632 8.288 122.056 8.88C121.496 9.472 121.216 10.28 121.216 11.304C121.216 12.328 121.496 13.136 122.056 13.728C122.632 14.32 123.328 14.616 124.144 14.616C124.96 14.616 125.656 14.32 126.232 13.728C126.808 13.12 127.096 12.304 127.096 11.28Z" fill="#1ABC9C"/>
</svg>
