<?xml version="1.0" standalone="no"?>
<!DOCTYPE svg PUBLIC "-//W3C//DTD SVG 20010904//EN"
 "http://www.w3.org/TR/2001/REC-SVG-20010904/DTD/svg10.dtd">
<svg version="1.0" xmlns="http://www.w3.org/2000/svg"
 width="182.000000pt" height="34.000000pt" viewBox="0 0 182.000000 34.000000"
 preserveAspectRatio="xMidYMid meet">

<g transform="translate(0.000000,34.000000) scale(0.100000,-0.100000)"
fill="#000000" stroke="none">
<path d="M0 170 l0 -170 910 0 910 0 0 170 0 170 -910 0 -910 0 0 -170z m1060
20 l0 -120 -25 0 -25 0 0 120 0 120 25 0 25 0 0 -120z m-940 65 l0 -45 39 0
c40 0 40 0 43 43 3 38 6 42 31 45 l27 3 0 -115 0 -116 -30 0 c-29 0 -30 2 -30
45 l0 45 -40 0 -40 0 0 -45 c0 -43 -1 -45 -30 -45 l-30 0 0 108 c0 60 3 112 7
115 3 4 17 7 30 7 21 0 23 -5 23 -45z m1550 4 c0 -39 0 -40 22 -25 30 21 50
20 82 -5 24 -19 27 -27 24 -72 -2 -41 -8 -54 -31 -71 -24 -18 -31 -19 -60 -8
-21 8 -33 9 -35 2 -2 -5 -15 -10 -28 -10 -24 0 -24 0 -24 115 l0 115 25 0 c23
0 25 -4 25 -41z m-930 11 c0 -13 7 -20 20 -20 15 0 20 -7 20 -25 0 -18 -5 -25
-20 -25 -16 0 -20 -7 -20 -36 0 -27 5 -37 20 -41 13 -3 20 -14 20 -29 0 -20
-5 -24 -29 -24 -43 0 -61 23 -61 81 0 27 -4 49 -10 49 -5 0 -10 11 -10 25 0
14 5 25 10 25 6 0 10 9 10 20 0 15 7 20 25 20 18 0 25 -5 25 -20z m480 -25 l0
-45 45 0 45 0 0 45 c0 41 2 45 25 45 l25 0 0 -110 0 -110 -25 0 c-23 0 -25 3
-25 51 l0 50 -42 -3 -43 -3 -3 -48 c-3 -42 -5 -47 -28 -47 l-24 0 0 110 0 110
25 0 c23 0 25 -4 25 -45z m-776 -21 c59 -59 20 -154 -64 -154 -56 0 -90 34
-90 90 0 84 95 123 154 64z m186 -1 l22 -28 -28 -3 c-16 -2 -30 1 -32 7 -2 6
-13 11 -24 11 -28 0 -17 -22 18 -33 35 -12 64 -35 64 -54 0 -27 -39 -53 -79
-53 -31 0 -44 6 -61 27 l-22 28 22 3 c13 2 34 -2 46 -9 25 -13 41 -8 30 9 -3
5 -18 13 -33 17 -37 9 -53 23 -53 48 0 59 91 80 130 30z m311 14 c20 -15 39
-51 39 -71 0 -13 -12 -16 -60 -16 -45 0 -60 -4 -60 -14 0 -18 30 -30 44 -16
13 13 66 13 66 0 0 -22 -45 -50 -82 -50 -54 0 -88 35 -88 90 0 55 34 90 87 90
21 0 45 -6 54 -13z m509 -45 c0 -60 11 -82 42 -82 25 0 38 31 38 90 0 48 2 51
23 48 21 -3 22 -8 25 -90 3 -88 3 -88 -22 -88 -13 0 -26 5 -28 11 -2 7 -12 7
-31 -2 -57 -26 -97 19 -97 110 0 52 4 61 32 61 15 0 18 -8 18 -58z"/>
<path d="M1685 190 c-22 -25 -13 -66 17 -76 16 -5 27 -1 40 16 23 28 23 35 -2
60 -25 25 -32 25 -55 0z"/>
<path d="M350 185 c-7 -8 -10 -25 -6 -40 8 -31 50 -35 66 -5 23 42 -30 81 -60
45z"/>
<path d="M873 203 c-24 -9 -13 -23 18 -23 27 0 30 2 19 15 -13 16 -17 17 -37
8z"/>
</g>
</svg>
